<svg version="1.1" id="Layer_1" xmlns="http://www.w3.org/2000/svg" xmlns:xlink="http://www.w3.org/1999/xlink" x="0px" y="0px"
	 width="100%" viewBox="0 0 1024 976" enable-background="new 0 0 1024 976" xml:space="preserve">
<path fill="#000000" opacity="1.000000" stroke="none" 
	d="
M368.623657,579.800354 
	C345.830688,586.617371 323.263336,588.911621 300.377899,582.320862 
	C278.922455,576.141907 262.140625,563.393005 250.532196,544.612122 
	C246.176758,537.565552 240.976105,535.488159 233.614182,535.297607 
	C225.614044,535.090515 217.705124,533.820923 209.932739,531.919128 
	C187.494217,526.428833 178.316788,515.133179 177.760834,491.977570 
	C177.500931,481.152679 177.760651,470.315613 177.747208,459.484161 
	C177.745392,458.021973 178.098602,456.474304 176.886230,454.791992 
	C174.488266,455.147919 171.911484,455.530396 169.290710,455.919403 
	C168.472946,458.137299 169.911896,459.865173 170.313461,461.730743 
	C171.661560,467.993988 169.058395,471.751434 162.563614,472.200348 
	C156.027588,472.652100 150.102081,470.452911 144.463089,467.395081 
	C142.682922,466.429779 141.244110,465.326569 139.189728,467.282440 
	C128.109070,477.831604 109.537689,472.564362 102.343063,461.810974 
	C101.900520,461.149475 101.392632,460.531769 100.603569,459.477295 
	C87.613319,473.873871 75.067566,468.706116 62.544151,458.574921 
	C62.744080,466.559814 72.547562,472.501953 65.016441,481.906128 
	C80.259750,480.072693 88.340164,486.908783 91.475563,500.846283 
	C99.812843,492.539673 108.603889,492.608398 117.810181,496.824219 
	C123.063766,499.230011 123.349220,500.585510 119.819908,505.091187 
	C116.920441,508.792816 117.992546,511.887024 121.169968,514.669739 
	C124.176224,517.302612 126.416756,520.178589 125.753777,524.572327 
	C124.498192,532.893616 119.691139,536.334167 110.580803,533.602051 
	C105.764565,532.157776 101.132713,531.734009 96.264709,531.348694 
	C87.639778,530.666077 82.551514,527.129639 76.535950,518.759644 
	C64.562836,521.093445 59.247356,518.466736 53.709999,507.098022 
	C52.563721,504.744659 50.794594,505.233429 49.090633,505.280731 
	C43.028908,505.448914 37.617271,503.503571 32.571156,500.374176 
	C25.525757,496.005005 25.141640,491.610016 31.289984,486.639038 
	C20.849840,482.013519 19.217756,477.348877 24.914282,468.416809 
	C12.674318,457.232361 11.982477,453.412842 21.278961,445.941376 
	C17.447704,443.051392 13.057685,440.410065 13.718307,434.693909 
	C14.391112,428.872314 19.360561,427.436310 23.932972,425.247223 
	C20.708147,421.471771 15.733222,419.270660 14.866001,414.105804 
	C13.741600,407.409210 19.477558,406.657318 23.683189,404.819336 
	C19.262478,392.345856 19.491632,392.088562 36.086418,390.553223 
	C30.895302,383.529388 30.526043,380.483612 34.341415,376.160187 
	C39.354481,370.479614 49.708157,369.060638 56.391624,373.243805 
	C58.213127,374.383881 59.827515,375.854858 62.208668,377.692322 
	C68.501106,366.427490 76.601273,368.911469 84.689255,375.526489 
	C94.448837,363.696869 97.801079,364.062958 108.888039,378.073395 
	C113.939629,374.629395 119.286026,371.542023 125.862923,372.820923 
	C132.311966,374.074951 136.187866,378.455444 139.001724,384.428619 
	C143.074722,381.315460 146.603577,378.365814 151.262726,377.197998 
	C162.427383,374.399567 170.354660,381.062134 168.854935,392.466888 
	C168.483765,395.289612 169.093842,396.518951 171.827118,396.941772 
	C173.128281,397.143036 174.408188,397.621094 175.637680,398.121338 
	C179.961594,399.880524 183.729355,402.181458 184.280197,407.461365 
	C184.818253,412.618805 182.647964,416.126495 177.768707,417.752411 
	C178.084244,419.855286 178.941818,421.141724 180.841019,422.041656 
	C183.845459,414.983582 186.839691,407.998566 189.795349,400.997253 
	C200.970047,374.526917 221.136841,359.099487 248.760406,352.595673 
	C259.942017,349.963074 271.100922,347.212067 282.468170,345.576538 
	C293.917358,343.929230 303.880768,338.373657 314.304993,334.071747 
	C336.167206,325.049622 357.890900,315.692200 379.693237,306.524261 
	C387.220856,303.358917 395.382172,303.762451 403.255585,302.972137 
	C440.385315,299.245422 477.589203,296.954041 514.955505,297.596252 
	C580.188110,298.717377 642.393066,312.121063 700.735474,342.015228 
	C723.716370,353.790497 746.982422,365.010132 769.938721,376.832275 
	C775.921509,379.913361 782.066406,381.222473 788.557068,381.627747 
	C818.296753,383.484863 848.012085,385.674866 877.540588,389.747345 
	C905.822510,393.647858 933.612854,399.523834 959.699585,411.747467 
	C975.009521,418.921295 975.059265,418.840118 975.260010,435.468903 
	C975.459290,451.978363 978.020630,468.271515 979.707642,484.645447 
	C980.628723,493.585052 981.526733,502.494843 980.296753,511.527649 
	C978.296265,526.220398 968.373901,536.633118 951.664917,541.239807 
	C939.874390,544.490479 927.849243,546.016968 915.668579,546.251038 
	C911.863159,546.324280 909.298706,547.374939 906.891541,550.595703 
	C894.037476,567.794495 876.167786,577.370972 855.829407,582.582703 
	C827.774475,589.771790 800.375366,588.277405 774.254944,574.797424 
	C764.944031,569.992310 757.046692,563.358887 751.089233,554.668274 
	C749.303894,552.063782 747.258911,551.012268 744.122803,550.790039 
	C729.487122,549.752869 714.816956,550.044495 700.169067,549.551819 
	C662.375916,548.280640 624.555664,547.831482 586.748657,546.949158 
	C546.447876,546.008667 506.149963,544.947449 465.850739,543.940308 
	C453.860748,543.640625 441.867920,543.421936 429.882294,542.999390 
	C426.560944,542.882263 424.389130,543.675293 422.626678,546.836670 
	C418.701141,553.878113 412.131927,558.368835 405.582062,562.669617 
	C394.237518,570.118774 381.964905,575.656860 368.623657,579.800354 
M355.246185,385.436646 
	C354.284821,399.716125 353.199097,413.988525 352.387451,428.276520 
	C350.593842,459.849396 348.934570,491.429932 347.228577,523.007751 
	C346.724182,532.343018 346.736542,532.344116 337.614777,532.304382 
	C336.114990,532.297852 334.615204,532.289612 333.115448,532.276367 
	C325.588409,532.209900 325.369019,532.198242 325.735931,524.854492 
	C326.607910,507.402374 327.679230,489.959900 328.725342,472.516876 
	C329.611969,457.733185 330.806427,442.963928 331.431183,428.169952 
	C331.906342,416.919098 333.344940,405.698334 332.779144,393.146179 
	C324.274475,410.214142 316.279053,426.248657 308.294159,442.288422 
	C301.762207,455.409546 295.022888,468.434387 288.831390,481.714447 
	C286.508606,486.696594 282.795563,485.909790 278.832611,485.950043 
	C275.177094,485.987152 273.353668,484.571533 272.046570,480.936310 
	C264.609375,460.252563 256.844177,439.686615 249.170212,419.088165 
	C245.890518,410.284821 242.561768,401.499756 239.255310,392.706390 
	C237.436371,408.120422 236.277328,423.334625 235.395599,438.564941 
	C233.865982,464.986298 232.533676,491.419037 231.064865,517.843994 
	C230.501511,527.979004 230.417511,528.189697 240.567505,528.987915 
	C246.424713,529.448608 250.210083,531.324768 253.446182,536.923279 
	C265.003174,556.917175 281.872772,570.654053 304.553223,576.540710 
	C315.611176,579.410828 326.838867,580.055176 338.230804,578.972107 
	C364.742889,576.451538 388.789673,567.611450 409.845276,551.183777 
	C414.491974,547.558350 419.474548,543.661194 416.725952,536.080566 
	C431.702972,535.132202 446.187775,537.491333 461.910309,536.466187 
	C453.161652,534.170715 445.719391,531.828857 438.789825,528.131409 
	C437.500061,527.443237 435.650269,527.004089 435.642120,525.245300 
	C435.607391,517.713684 435.501587,510.155304 437.326233,502.895447 
	C439.586975,502.656403 440.560120,503.952087 441.724640,504.828583 
	C450.362793,511.330444 459.796387,516.308472 470.508331,518.068604 
	C480.121674,519.648193 489.815979,519.874695 498.660461,514.584839 
	C504.682434,510.983124 506.103455,505.230499 505.965332,498.683258 
	C505.838074,492.651886 502.476990,489.293488 497.302185,487.096741 
	C493.450623,485.461700 489.461761,484.343872 485.414703,483.336670 
	C475.738922,480.928711 465.825470,479.298462 456.830963,474.626404 
	C449.208710,470.667175 443.855438,464.866974 441.657013,456.403046 
	C436.748993,437.507111 446.301758,418.548157 464.626923,411.217346 
	C485.072571,403.038239 504.806580,406.614807 524.158447,415.212982 
	C525.527405,415.821228 527.152771,416.626862 527.080322,418.320679 
	C526.779236,425.355377 526.277710,432.381470 525.864075,439.174561 
	C523.063416,439.823730 522.005493,438.267975 520.720642,437.340546 
	C514.990051,433.204498 508.726868,430.111267 502.011810,428.015076 
	C491.052460,424.594025 480.111176,423.713898 469.490662,429.276855 
	C463.730072,432.294189 461.298920,437.291504 461.332031,443.652649 
	C461.364410,449.870514 464.429016,454.052032 470.039093,456.403748 
	C472.946869,457.622742 475.929871,458.688995 478.937622,459.638092 
	C488.611145,462.690338 498.912292,463.514526 508.256744,467.710052 
	C516.842957,471.565155 523.517212,477.410797 525.717590,486.964478 
	C529.371277,502.828003 525.143066,516.287476 512.524170,526.779175 
	C504.411499,533.524170 494.717041,536.424194 484.355377,538.120789 
	C505.553711,538.914856 526.700867,538.867249 547.847534,538.942383 
	C554.666443,538.966614 561.484131,539.314026 568.302368,539.513428 
	C592.774170,540.228882 617.243225,541.060303 641.718445,541.627563 
	C667.035217,542.214355 692.365356,542.308716 717.674316,543.105591 
	C727.495850,543.414795 737.319763,543.602600 747.141785,543.869080 
	C750.106079,543.949524 752.522034,544.523987 754.266418,547.425720 
	C761.504517,559.466064 772.204224,567.552490 785.083862,572.562805 
	C810.992859,582.641357 837.185547,582.185425 863.288086,573.293396 
	C878.416687,568.139771 891.760132,559.918518 901.165405,546.765503 
	C904.893738,541.551453 908.625488,538.708069 915.034424,539.666870 
	C918.799500,540.230225 920.757629,538.893311 920.963196,534.551697 
	C921.647888,520.093567 922.793518,505.657990 923.638184,491.206482 
	C924.347290,479.075378 925.288086,466.949585 924.735596,454.774231 
	C924.105225,440.879303 917.523621,434.405304 903.747437,434.241089 
	C891.335449,434.093109 881.531494,440.376373 871.906555,447.108307 
	C870.340881,448.203430 870.293335,449.893738 870.193115,451.581726 
	C868.554993,479.162323 866.874573,506.740448 865.277466,534.323364 
	C864.898376,540.869751 864.733521,541.170654 858.403442,541.121826 
	C855.737366,541.101257 853.060303,540.871277 850.408081,541.042786 
	C846.162048,541.317200 844.319275,539.794434 844.714844,535.285645 
	C845.529297,526.002808 846.092224,516.695435 846.617859,507.390198 
	C848.063171,481.802795 849.425537,456.210754 850.840942,430.621674 
	C851.719116,414.744995 851.730286,414.840027 867.596069,415.735199 
	C871.506470,415.955811 872.504333,417.680206 871.922058,421.158112 
	C871.554565,423.352814 870.805420,425.609406 872.160339,428.201782 
	C878.178894,424.028107 883.879578,420.009613 890.339905,417.259308 
	C901.369019,412.563965 912.580566,411.903961 923.943970,415.715973 
	C936.237793,419.840118 944.642090,433.010040 945.357849,448.405365 
	C945.877380,459.580078 944.986877,470.685516 944.307983,481.808685 
	C943.375366,497.091888 942.396790,512.372375 941.512268,527.658325 
	C941.352600,530.417480 940.745178,533.254028 941.900818,535.897766 
	C943.576599,536.568909 945.032349,535.915894 946.454834,535.630371 
	C962.608765,532.388367 972.046753,523.694946 973.553284,510.245972 
	C974.351196,503.122559 974.085632,495.927704 973.365417,488.785675 
	C971.412842,469.423340 968.006042,450.168701 968.681458,430.612854 
	C968.856689,425.539520 966.798889,422.883118 962.369751,420.607056 
	C930.036316,403.991455 894.897278,398.497772 859.433350,394.338562 
	C835.297241,391.507874 811.049683,389.824982 786.808167,388.182922 
	C779.198608,387.667480 772.323853,385.497955 765.514587,382.034637 
	C736.259644,367.154968 707.295776,351.579529 677.365784,338.178406 
	C629.904358,316.927490 579.597229,306.684143 527.723877,304.439392 
	C486.541107,302.657288 445.494476,305.511566 404.541168,309.566833 
	C395.528015,310.459351 386.384979,310.571442 377.685822,314.409912 
	C355.443756,324.224091 332.986328,333.554657 310.540375,342.899323 
	C303.639984,345.772095 297.042938,349.515930 289.625946,351.024048 
	C278.705811,353.244537 267.708710,355.108185 256.838989,357.545746 
	C251.224564,358.804810 245.470230,360.033844 240.240662,363.336182 
	C245.624878,363.694031 249.080002,365.261292 251.108856,370.858856 
	C260.527405,396.844574 270.489227,422.633667 280.310638,448.472595 
	C281.036438,450.382050 281.151703,452.750610 283.621368,453.983368 
	C286.205048,450.597961 287.777985,446.743103 289.594482,443.034851 
	C301.465637,418.800293 313.368317,394.580872 325.119232,370.288055 
	C326.701599,367.016754 328.611694,365.462097 332.376343,365.660522 
	C338.527985,365.984711 344.706238,365.986816 350.868225,365.865997 
	C354.984680,365.785248 356.871887,367.334991 356.002106,371.519623 
	C355.111115,375.806274 355.421051,380.149475 355.246185,385.436646 
M184.322556,490.273773 
	C184.679535,493.914215 184.869125,497.580414 185.424072,501.190430 
	C187.284515,513.292847 194.895386,521.328918 206.771286,524.210449 
	C209.380859,524.843628 210.530197,524.276001 210.684067,521.536804 
	C210.898560,517.718994 211.380829,513.916016 211.589050,510.098053 
	C213.038574,483.520752 214.379669,456.937347 215.897446,430.364014 
	C216.627579,417.581146 217.790970,404.822845 218.509125,392.039429 
	C218.837799,386.188629 218.565048,380.304077 218.565048,374.041016 
	C214.597610,375.998047 212.187759,378.728455 209.825592,381.505829 
	C199.036636,394.191193 193.124893,409.409637 187.469238,424.745026 
	C186.384735,427.685638 185.187485,430.591705 185.149094,433.879425 
	C184.933243,452.360199 184.595718,470.839569 184.322556,490.273773 
M131.126953,409.530334 
	C126.190224,407.428986 122.067818,404.215271 118.530762,399.490753 
	C114.654213,405.562622 109.577309,407.760193 102.977570,407.502380 
	C96.538704,407.250824 91.272614,404.266418 85.873100,401.317963 
	C83.665993,409.243164 81.326897,410.200897 66.487488,408.996429 
	C69.653694,411.244690 72.107582,413.181763 73.719147,415.907806 
	C75.765236,419.368835 75.608574,422.721863 71.656876,424.151855 
	C66.073196,426.172394 65.802055,430.522949 65.148720,435.841248 
	C75.211609,431.187775 83.781624,433.800476 91.796432,439.536774 
	C93.432198,440.707550 94.766685,440.392242 96.352943,439.456848 
	C99.606560,437.538177 103.375320,437.139374 106.307114,439.303986 
	C111.100449,442.842987 115.554214,443.827698 121.448616,441.863922 
	C125.269180,440.591064 129.858093,441.624390 134.413742,441.624390 
	C125.301407,433.247498 125.301407,433.247498 138.677521,426.230927 
	C133.003067,422.117615 133.255936,417.222931 137.303970,411.921234 
	C135.166962,411.120911 133.477310,410.488098 131.126953,409.530334 
z"/>
<path fill="#000000" opacity="1.000000" stroke="none" 
	d="
M788.631226,536.792542 
	C768.372986,546.036011 749.096985,545.775696 731.564331,531.656189 
	C721.260254,523.358093 716.293152,511.574371 714.430603,498.701508 
	C711.361877,477.491425 713.086853,456.821930 723.611755,437.662598 
	C739.768677,408.250641 775.198608,404.628510 796.501770,418.566742 
	C808.277710,426.271515 814.656128,437.722198 817.523193,451.303955 
	C821.580505,470.524109 820.154846,489.367676 813.202942,507.686890 
	C808.509644,520.054382 800.414734,529.799316 788.631226,536.792542 
M789.153625,510.610016 
	C799.944397,492.555237 800.811401,473.029236 796.723572,453.165924 
	C793.923096,439.558044 785.085327,431.685577 773.422302,430.383240 
	C758.497070,428.716614 746.685791,434.354248 740.896484,447.375031 
	C732.632446,465.962036 731.481262,485.414368 737.443298,504.876007 
	C741.112732,516.853821 750.882751,523.358093 762.958557,523.717896 
	C773.801392,524.041016 782.359070,519.927551 789.153625,510.610016 
z"/>
<path fill="#000000" opacity="1.000000" stroke="none" 
	d="
M574.766479,412.524292 
	C594.860474,405.282349 613.807556,408.661957 632.427917,416.630371 
	C635.271667,417.847321 636.413574,419.821259 636.132751,422.914917 
	C635.584045,428.959747 635.214600,435.020905 634.786743,440.859283 
	C631.913635,441.656891 630.825073,439.838348 629.356750,438.901581 
	C615.935486,430.339203 601.793396,424.767670 585.454834,428.299042 
	C582.657898,428.903564 580.042908,430.026978 577.638184,431.530548 
	C572.172119,434.948303 569.976379,439.990448 570.290710,446.374817 
	C570.580750,452.268860 573.862061,455.840057 578.849365,458.240631 
	C585.824524,461.598083 593.432739,462.818176 600.843262,464.706482 
	C604.874817,465.733765 608.970581,466.580200 612.906555,467.898987 
	C632.194214,474.361603 640.658203,491.568542 633.990601,510.854156 
	C629.112366,524.963928 618.694092,533.393311 604.690247,537.014526 
	C585.026733,542.099243 566.047546,539.296753 547.937805,530.193726 
	C545.062988,528.748657 543.643066,526.940491 544.277588,523.483154 
	C545.412354,517.300720 543.901550,510.820343 546.177551,504.499176 
	C549.251648,504.443909 550.876648,506.877472 552.917480,508.314850 
	C564.709717,516.620117 577.558533,521.414185 592.173584,520.666809 
	C596.358337,520.452820 600.447571,519.686707 604.326355,518.092834 
	C611.762451,515.037109 615.033691,509.682129 614.819824,501.152527 
	C614.648315,494.316711 611.945435,490.597015 603.931946,488.077820 
	C595.530762,485.436768 586.908325,483.499939 578.384827,481.247131 
	C577.096619,480.906647 575.809326,480.555908 574.539978,480.152161 
	C561.429504,475.982422 551.392944,468.688385 549.779053,453.902802 
	C547.941101,437.065918 554.131775,423.913879 568.999756,415.254242 
	C570.720093,414.252258 572.598694,413.522064 574.766479,412.524292 
z"/>
<path fill="#000000" opacity="1.000000" stroke="none" 
	d="
M660.719116,531.883911 
	C662.349670,504.673645 663.972778,477.938477 665.591003,451.203003 
	C666.274231,439.914490 667.058350,428.630280 667.557434,417.333527 
	C667.707886,413.928406 668.891479,412.510834 672.327087,412.676666 
	C676.316833,412.869263 680.320679,412.789001 684.318359,412.791260 
	C686.853210,412.792725 687.845459,413.939392 687.683960,416.521973 
	C686.241028,439.597595 684.816406,462.674591 683.489929,485.757141 
	C682.649780,500.376831 681.934998,515.004333 681.262512,529.632812 
	C680.874023,538.083191 680.826904,538.212280 672.388916,538.050293 
	C670.223938,538.008728 668.047180,537.846924 665.895386,538.005981 
	C661.675659,538.317810 660.095520,536.392456 660.719116,531.883911 
z"/>
<path fill="#000000" opacity="1.000000" stroke="none" 
	d="
M385.618683,531.736938 
	C387.273010,497.809204 389.077240,464.271942 390.905579,430.735992 
	C391.204254,425.257904 391.713898,419.789825 391.933167,414.309387 
	C392.121338,409.607178 394.000824,407.208191 399.044067,407.968903 
	C401.667633,408.364655 404.363281,408.629303 407.002686,408.493408 
	C411.088715,408.283020 412.637329,409.826904 412.362885,413.994354 
	C411.455872,427.766998 410.819702,441.557281 410.007019,455.336517 
	C409.155304,469.776520 408.227600,484.212067 407.318451,498.648651 
	C406.670685,508.934357 406.001190,519.218750 405.334686,529.503235 
	C405.238708,530.984436 405.361664,532.998474 403.411163,533.023438 
	C397.524811,533.098755 391.546967,534.416382 385.618683,531.736938 
z"/>
<path fill="#000000" opacity="1.000000" stroke="none" 
	d="
M680.177490,370.650543 
	C692.411804,371.033569 692.158386,368.145752 691.026550,382.008209 
	C689.931274,395.423828 692.604309,393.168304 679.087524,393.228271 
	C666.967773,393.282043 666.967102,393.148071 668.387878,381.221802 
	C668.407532,381.057281 668.437866,380.894043 668.456177,380.729431 
	C669.581360,370.571289 669.581299,370.571289 680.177490,370.650543 
z"/>
<path fill="#000000" opacity="1.000000" stroke="none" 
	d="
M405.974579,365.792358 
	C416.783783,365.873474 416.783630,365.873444 415.542938,376.368225 
	C415.503845,376.698639 415.470612,377.029907 415.442596,377.361450 
	C414.508392,388.418579 414.506256,388.539673 403.196045,388.329590 
	C391.790863,388.117767 392.178253,390.778168 393.011230,377.164398 
	C393.713928,365.679962 393.967743,365.695496 405.974579,365.792358 
z"/>
</svg>